# xmcd
#
# Track frame offsets:
# 150
# 12790
# 30580
# 50096
# 74160
# 95437
# 119739
# 137545
# 159810
# 191067
# 223511
# 239409
# 265906
#
# Disc length: 3764 seconds
#
#
# Revision: 0
# Processed by: cddbd v1.5.2PL0 Copyright (c) Steve Scherf et al.
# Submitted via: FreeRIP 2.96 
#
DISCID=bc0eb20d
DTITLE=Tim Maia - Tim Maia In Concert
DYEAR=1900
DGENRE=Soul
TTITLE0=A Festa dos Santos Reis
TTITLE1=Sossego
TTITLE2=Gostava Tanto de Voce
TTITLE3=Primavera (Vai Chuva)
TTITLE4=Baby
TTITLE5=Telefone
TTITLE6=Do Leme ao Pontal
TTITLE7=O Descobridor dos Sete Mares
TTITLE8=Voce e Eu, Eu e Voce
TTITLE9=Me de Motivo
TTITLE10=Voce
TTITLE11=Um Dia de Domingo
TTITLE12=Vale Tudo
EXTD=
EXTT0=
EXTT1=
EXTT2=
EXTT3=
EXTT4=
EXTT5=
EXTT6=
EXTT7=
EXTT8=
EXTT9=
EXTT10=
EXTT11=
EXTT12=
PLAYORDER=
